<?xml version="1.0" standalone="no"?>
<!DOCTYPE svg PUBLIC "-//W3C//DTD SVG 20010904//EN"
 "http://www.w3.org/TR/2001/REC-SVG-20010904/DTD/svg10.dtd">
<svg version="1.0" xmlns="http://www.w3.org/2000/svg"
 width="460.000000pt" height="460.000000pt" viewBox="0 0 460.000000 460.000000"
 preserveAspectRatio="xMidYMid meet">
<metadata>
Created by potrace 1.11, written by Peter Selinger 2001-2013
</metadata>
<g transform="translate(0.000000,460.000000) scale(0.100000,-0.100000)"
fill="#000000" stroke="none">
<path d="M0 2300 l0 -2300 2300 0 2300 0 0 2300 0 2300 -2300 0 -2300 0 0
-2300z m2230 1276 c0 -7 7 -19 16 -27 13 -10 17 -10 24 1 7 11 11 9 19 -10 18
-43 36 -59 59 -53 29 7 30 -19 1 -38 -26 -18 -16 -53 12 -44 11 4 19 3 18 -2
-1 -4 1 -20 5 -35 9 -29 33 -37 54 -16 9 9 13 7 18 -6 4 -11 1 -22 -7 -27 -8
-5 -9 -9 -3 -9 7 0 11 -22 11 -57 0 -41 5 -59 17 -68 22 -16 20 -32 -4 -45
-11 -6 -20 -17 -20 -24 0 -8 -7 -16 -15 -20 -9 -3 -15 -18 -15 -36 0 -31 16
-41 26 -15 9 22 42 18 49 -5 8 -24 21 -26 29 -5 7 18 42 20 50 3 3 -9 9 -8 20
5 14 18 15 18 25 -2 12 -22 9 -25 -33 -35 -21 -5 -27 -11 -23 -26 3 -13 0 -17
-9 -13 -15 5 -79 -36 -69 -45 3 -3 -16 -16 -42 -30 l-48 -24 -22 26 c-37 44
-39 36 -17 -71 4 -20 2 -33 -4 -33 -6 0 -13 18 -17 40 -8 45 -20 52 -29 15 -4
-14 -11 -25 -16 -25 -5 0 -7 -7 -4 -15 7 -18 -7 -20 -24 -3 -9 9 -12 9 -12 0
0 -7 4 -12 8 -12 4 0 14 -16 21 -36 7 -20 21 -44 31 -54 10 -10 23 -48 30 -86
18 -97 20 -117 24 -224 4 -105 14 -167 27 -176 5 -3 9 -23 9 -45 0 -24 5 -39
13 -39 8 0 8 -3 -2 -9 -12 -8 -13 -16 -4 -46 7 -20 9 -43 7 -50 -3 -7 2 -25
11 -39 19 -29 10 -50 -25 -61 -10 -3 -20 -15 -23 -25 -3 -13 -14 -20 -29 -20
-26 0 -88 -35 -88 -50 0 -5 -6 -10 -14 -10 -13 0 -26 -20 -26 -40 0 -4 25 -11
56 -15 60 -7 70 -28 16 -33 -18 -2 -32 -7 -32 -12 0 -13 -52 -22 -63 -11 -16
16 -27 13 -21 -4 5 -11 -3 -17 -25 -21 -17 -4 -28 -10 -26 -14 7 -12 115 -8
115 3 0 6 35 8 80 5 45 -3 83 -1 86 4 10 15 61 8 78 -11 30 -33 25 -72 -13
-98 -18 -12 -37 -20 -42 -17 -5 3 -9 1 -9 -4 0 -6 -7 -13 -16 -16 -8 -3 -12
-2 -9 4 15 24 -8 29 -44 10 -29 -17 -42 -19 -64 -11 -15 6 -27 15 -27 20 0 5
-18 7 -41 4 -35 -5 -41 -3 -46 16 -7 27 -17 27 -36 -3 -15 -22 -14 -24 9 -35
14 -6 35 -11 47 -11 27 -1 67 -33 67 -53 0 -8 7 -17 15 -21 8 -3 15 -17 15
-31 0 -30 30 -45 91 -45 38 0 38 0 22 -20 -10 -11 -29 -20 -43 -20 -15 0 -35
-6 -45 -14 -19 -14 -19 -15 -2 -33 9 -11 17 -27 17 -36 0 -9 4 -17 10 -17 5 0
7 -7 3 -15 -5 -13 -2 -14 21 -4 30 14 32 13 42 -25 5 -22 4 -27 -6 -21 -9 5
-11 4 -6 -4 9 -14 -20 -45 -34 -36 -6 3 -12 -1 -15 -9 -17 -53 -16 -51 -25
-36 -8 12 -10 9 -10 -10 -1 -27 -22 -62 -36 -59 -15 2 -54 -13 -54 -21 0 -5
-13 -15 -30 -24 -16 -8 -30 -10 -30 -5 0 5 -7 9 -15 9 -8 0 -15 -4 -15 -10 0
-17 -18 -12 -89 24 -56 28 -70 31 -84 21 -17 -12 -24 -31 -8 -21 11 7 34 -20
38 -46 2 -12 12 -29 23 -38 11 -10 20 -24 21 -31 0 -9 2 -10 5 -3 7 18 45 4
54 -20 8 -19 9 -19 9 -2 1 15 4 16 16 6 8 -7 15 -10 15 -6 0 3 14 -7 31 -24
23 -22 40 -29 65 -28 21 1 34 6 34 15 0 7 5 13 10 13 6 0 10 -4 10 -10 0 -5
15 -10 34 -10 44 0 80 -20 84 -47 3 -21 -35 -169 -65 -251 -15 -42 -14 -44 6
-66 12 -13 21 -35 21 -55 0 -21 9 -41 26 -58 l25 -25 -26 -39 c-14 -21 -29
-39 -34 -39 -5 0 -12 -11 -15 -24 -4 -18 -18 -28 -55 -40 -27 -9 -60 -16 -72
-16 -26 0 -97 40 -194 109 -38 27 -106 72 -150 100 -159 99 -277 220 -316 325
-21 55 -24 81 -26 251 -1 105 -4 206 -6 225 -3 19 -8 85 -12 145 -8 102 -11
113 -42 159 -44 64 -94 171 -128 273 l-27 81 -20 -20 c-29 -29 -79 -48 -99
-37 -28 14 -30 39 -9 86 15 34 24 44 36 39 14 -6 16 -1 10 35 -5 29 -2 48 7
63 12 18 13 31 1 86 -24 114 -29 311 -10 435 9 60 22 112 28 116 6 4 17 24 25
45 25 66 81 238 87 266 4 15 20 43 37 63 28 32 29 51 1 23 -23 -23 -12 5 16
37 45 55 92 121 92 131 0 5 9 16 21 24 23 16 51 64 56 94 4 25 23 47 33 41 5
-3 6 5 2 17 -4 17 -2 20 12 15 10 -4 19 -1 22 8 4 8 9 13 14 10 4 -2 13 8 20
23 8 17 14 22 17 14 3 -8 0 -19 -6 -25 -6 -6 -11 -16 -11 -22 0 -16 28 -14 34
2 4 9 1 11 -7 7 -6 -4 -2 3 11 17 12 13 29 33 38 44 14 19 15 18 8 -15 -6 -31
-5 -33 10 -21 9 7 16 20 16 27 0 8 5 14 10 14 16 0 12 -46 -5 -60 -9 -7 -13
-15 -10 -18 3 -3 15 3 27 14 l22 19 -18 -30 c-10 -16 -30 -42 -44 -57 -14 -16
-22 -28 -18 -28 12 0 125 123 120 131 -2 4 0 18 5 31 6 12 10 19 10 13 1 -8
36 -11 71 -6 3 1 6 10 7 22 2 25 22 51 33 44 5 -3 12 0 15 6 4 6 18 8 31 5 15
-4 37 1 57 11 17 10 48 21 67 24 19 3 38 7 43 8 4 0 7 -5 7 -13z m306 -300
c-1 -32 -6 -48 -20 -56 -17 -11 -18 -10 -13 12 4 12 7 38 7 56 0 20 5 32 14
32 10 0 13 -13 12 -44z m-1056 -106 c0 -5 -4 -10 -10 -10 -5 0 -10 5 -10 10 0
6 5 10 10 10 6 0 10 -4 10 -10z m1002 -92 c-6 -6 -7 0 -4 19 5 21 7 23 10 9 2
-10 0 -22 -6 -28z m-1822 -189 c0 -10 -4 -19 -10 -19 -5 0 -10 12 -10 26 0 14
4 23 10 19 6 -3 10 -15 10 -26z m2106 -286 c-10 -10 -19 5 -10 18 6 11 8 11
12 0 2 -7 1 -15 -2 -18z m-23 -63 c-3 -3 -8 1 -10 8 -3 6 -11 12 -19 12 -8 0
-14 8 -14 18 0 34 14 33 31 0 10 -18 15 -35 12 -38z m-89 -846 c21 -21 21 -74
0 -74 -31 0 -54 20 -54 49 0 44 24 55 54 25z m-96 -42 c2 -7 -2 -10 -12 -6 -9
3 -16 11 -16 16 0 13 23 5 28 -10z"/>
<path d="M1750 3380 c-6 -11 -8 -20 -6 -20 3 0 10 9 16 20 6 11 8 20 6 20 -3
0 -10 -9 -16 -20z"/>
<path d="M1691 3337 c-13 -21 -12 -21 5 -5 10 10 16 20 13 22 -3 3 -11 -5 -18
-17z"/>
<path d="M1611 3231 c-9 -6 -5 -8 13 -8 14 0 26 3 26 8 0 11 -21 11 -39 0z"/>
<path d="M2348 3144 c3 -15 8 -22 14 -16 9 9 1 42 -12 42 -4 0 -5 -12 -2 -26z"/>
<path d="M1843 2873 c-24 -2 -43 -8 -43 -14 0 -5 -7 -9 -15 -9 -8 0 -15 5 -15
11 0 8 -4 8 -14 0 -7 -6 -21 -9 -30 -5 -10 4 -16 1 -16 -7 0 -10 -3 -10 -11
-2 -9 9 -19 8 -41 -3 -16 -8 -34 -11 -41 -7 -26 16 -84 2 -72 -18 4 -5 -1 -9
-9 -9 -8 0 -36 -20 -63 -45 -38 -35 -44 -45 -28 -45 17 0 17 -2 5 -10 -12 -8
-10 -10 9 -10 16 0 21 4 18 14 -4 10 4 19 23 28 16 7 24 15 19 19 -7 4 -4 9 5
12 9 4 16 2 16 -4 0 -7 20 -9 61 -4 59 7 61 6 54 -14 -4 -14 -2 -21 7 -22 70
-4 279 1 288 6 7 4 29 7 51 7 21 0 41 4 45 9 4 6 11 6 20 -2 7 -6 20 -9 28 -6
7 3 18 1 24 -5 13 -13 35 0 29 16 -5 14 17 47 29 45 5 -1 21 -1 36 0 26 1 27
3 16 26 -12 26 -68 53 -68 33 0 -7 -7 -3 -15 8 -12 16 -14 16 -15 3 0 -9 -8
-23 -17 -30 -9 -8 -14 -9 -10 -3 3 6 0 19 -7 29 -12 16 -13 15 -19 -14 -6 -30
-27 -35 -27 -7 0 28 -87 40 -207 29z"/>
<path d="M1875 2693 c-16 -9 -32 -19 -35 -23 -3 -4 -30 -16 -60 -26 -142 -46
-170 -58 -186 -75 -22 -24 -10 -24 30 0 47 29 135 52 155 41 10 -6 11 -10 3
-10 -11 0 -45 -15 -211 -94 -24 -11 -23 -11 15 -17 21 -3 35 -7 29 -8 -5 -1 8
-11 29 -21 44 -22 62 -18 28 6 -32 22 -27 41 18 64 l40 20 0 -23 c0 -14 9 -36
20 -50 27 -34 26 -37 -17 -31 -31 4 -35 3 -20 -6 9 -6 21 -9 25 -6 4 2 23 -9
41 -25 19 -16 38 -29 43 -29 5 0 7 -8 4 -18 -5 -15 0 -18 31 -20 21 -2 40 -7
43 -12 8 -12 99 10 133 33 30 20 60 81 52 107 -4 14 -2 20 9 20 12 0 14 12 12
60 -3 65 -20 94 -64 105 -14 3 -31 14 -38 23 -10 14 -15 15 -25 5 -14 -14 -30
-17 -28 -5 6 36 -25 42 -76 15z m-97 -160 c-2 -10 -12 -19 -23 -20 -11 -2 -14
0 -7 3 10 5 10 9 1 20 -9 11 -7 14 11 14 15 0 20 -5 18 -17z"/>
<path d="M1890 1971 c-13 -14 -23 -27 -22 -28 7 -8 -3 -24 -48 -73 -27 -30
-50 -61 -50 -67 0 -7 -5 -13 -11 -13 -12 0 -4 -48 10 -63 5 -4 27 23 50 60 23
37 60 92 81 122 57 78 50 126 -10 62z"/>
<path d="M2170 1960 c-13 -9 -13 -10 0 -9 8 0 24 4 35 9 l20 9 -20 0 c-11 0
-27 -4 -35 -9z"/>
<path d="M2175 1770 c-3 -5 -2 -10 4 -10 5 0 13 5 16 10 3 6 2 10 -4 10 -5 0
-13 -4 -16 -10z"/>
<path d="M1900 1762 c0 -7 -6 -12 -12 -11 -33 4 -46 -3 -52 -26 -4 -14 -13
-25 -22 -25 -8 0 -14 -6 -12 -12 1 -7 -3 -22 -9 -33 -9 -16 -7 -29 7 -61 11
-22 26 -47 35 -54 8 -7 15 -20 15 -29 0 -18 18 -41 32 -41 4 0 8 23 8 51 l0
51 43 -6 c116 -18 147 -19 141 -2 -3 9 -12 16 -20 16 -7 0 -21 12 -30 26 -15
22 -15 27 -3 35 11 7 10 9 -6 10 -68 3 -98 38 -60 69 23 20 18 36 -12 35 -16
0 -31 4 -35 10 -5 6 -8 5 -8 -3z"/>
</g>
</svg>
